<?xml version="1.0" encoding="UTF-8" standalone="no"?><!DOCTYPE svg PUBLIC "-//W3C//DTD SVG 1.1//EN" "http://www.w3.org/Graphics/SVG/1.1/DTD/svg11.dtd"><!-- Generated by graphviz version 2.40.1 (20161225.0304)
 --><!-- Title: %0 Pages: 1 --><svg xmlns="http://www.w3.org/2000/svg" xmlns:xlink="http://www.w3.org/1999/xlink" width="681pt" height="365pt" viewBox="0.00 0.00 680.95 365.49">
<g id="graph0" class="graph" transform="scale(1 1) rotate(0) translate(4 361.4935)">
<title>%0</title>
<polygon fill="#ffffff" stroke="transparent" points="-4,4 -4,-361.4935 676.9483,-361.4935 676.9483,4 -4,4"/>
<!-- dummy -->
<g id="node1" class="node">
<title>dummy</title>
</g>
<!-- 0 -->
<g id="node2" class="node">
<title>0</title>
<ellipse fill="none" stroke="#000000" cx="109" cy="-185.6935" rx="18" ry="18"/>
<text text-anchor="middle" x="109" y="-181.4935" font-family="Times,serif" font-size="14.00" fill="#000000">0</text>
</g>
<!-- dummy&#45;&gt;0 -->
<g id="edge1" class="edge">
<title>dummy-&gt;0</title>
<path fill="none" stroke="#000000" d="M54.3048,-185.6935C62.6909,-185.6935 71.9407,-185.6935 80.4103,-185.6935"/>
<polygon fill="#000000" stroke="#000000" points="80.5976,-189.1936 90.5976,-185.6935 80.5976,-182.1936 80.5976,-189.1936"/>
</g>
<!-- 1 -->
<g id="node3" class="node">
<title>1</title>
<ellipse fill="none" stroke="#000000" cx="188" cy="-298.6935" rx="18" ry="18"/>
<text text-anchor="middle" x="188" y="-294.4935" font-family="Times,serif" font-size="14.00" fill="#000000">1</text>
</g>
<!-- 0&#45;&gt;1 -->
<g id="edge2" class="edge">
<title>0-&gt;1</title>
<path fill="none" stroke="#000000" d="M119.3279,-200.4662C132.6939,-219.5847 156.1288,-253.1055 171.8557,-275.601"/>
<polygon fill="#000000" stroke="#000000" points="169.0713,-277.7267 177.6696,-283.9171 174.8083,-273.7159 169.0713,-277.7267"/>
<text text-anchor="middle" x="148.5" y="-248.8935" font-family="Times,serif" font-size="14.00" fill="#000000">a</text>
</g>
<!-- 4 -->
<g id="node6" class="node">
<title>4</title>
<ellipse fill="none" stroke="#000000" cx="188" cy="-238.6935" rx="18" ry="18"/>
<text text-anchor="middle" x="188" y="-234.4935" font-family="Times,serif" font-size="14.00" fill="#000000">4</text>
</g>
<!-- 0&#45;&gt;4 -->
<g id="edge8" class="edge">
<title>0-&gt;4</title>
<path fill="none" stroke="#000000" d="M124.232,-195.9124C135.5981,-203.5378 151.3413,-214.0996 164.3409,-222.8209"/>
<polygon fill="#000000" stroke="#000000" points="162.5605,-225.8411 172.8148,-228.5059 166.4604,-220.0281 162.5605,-225.8411"/>
<text text-anchor="middle" x="148.5" y="-217.8935" font-family="Times,serif" font-size="14.00" fill="#000000">b</text>
</g>
<!-- 6 -->
<g id="node8" class="node">
<title>6</title>
<ellipse fill="none" stroke="#000000" cx="188" cy="-78.6935" rx="18" ry="18"/>
<text text-anchor="middle" x="188" y="-74.4935" font-family="Times,serif" font-size="14.00" fill="#000000">6</text>
</g>
<!-- 0&#45;&gt;6 -->
<g id="edge11" class="edge">
<title>0-&gt;6</title>
<path fill="none" stroke="#000000" d="M112.9042,-168.0907C117.7483,-149.7038 127.5798,-120.9378 145,-101.8935 149.5838,-96.8823 155.5062,-92.7365 161.4817,-89.4047"/>
<polygon fill="#000000" stroke="#000000" points="163.3176,-92.4015 170.7306,-84.832 160.2152,-86.1266 163.3176,-92.4015"/>
<text text-anchor="middle" x="148.5" y="-106.8935" font-family="Times,serif" font-size="14.00" fill="#000000">c</text>
</g>
<!-- 7 -->
<g id="node9" class="node">
<title>7</title>
<ellipse fill="none" stroke="#000000" cx="188" cy="-24.6935" rx="18" ry="18"/>
<text text-anchor="middle" x="188" y="-20.4935" font-family="Times,serif" font-size="14.00" fill="#000000">7</text>
</g>
<!-- 0&#45;&gt;7 -->
<g id="edge3" class="edge">
<title>0-&gt;7</title>
<path fill="none" stroke="#000000" d="M112.5003,-167.9284C117.4588,-145.2821 127.8808,-105.4107 145,-74.8935 151.1038,-64.0126 159.7785,-53.3197 167.7397,-44.6176"/>
<polygon fill="#000000" stroke="#000000" points="170.4026,-46.8963 174.7561,-37.2372 165.3293,-42.0732 170.4026,-46.8963"/>
<text text-anchor="middle" x="148.5" y="-79.8935" font-family="Times,serif" font-size="14.00" fill="#000000">a</text>
</g>
<!-- 2 -->
<g id="node4" class="node">
<title>2</title>
<ellipse fill="none" stroke="#000000" cx="267" cy="-338.6935" rx="18" ry="18"/>
<text text-anchor="middle" x="267" y="-334.4935" font-family="Times,serif" font-size="14.00" fill="#000000">2</text>
</g>
<!-- 1&#45;&gt;2 -->
<g id="edge4" class="edge">
<title>1-&gt;2</title>
<path fill="none" stroke="#000000" d="M204.3689,-306.9815C215.1386,-312.4345 229.4504,-319.681 241.6743,-325.8703"/>
<polygon fill="#000000" stroke="#000000" points="240.4198,-329.1582 250.9224,-330.5529 243.5819,-322.913 240.4198,-329.1582"/>
<text text-anchor="middle" x="227.5" y="-323.8935" font-family="Times,serif" font-size="14.00" fill="#000000">b</text>
</g>
<!-- 3 -->
<g id="node5" class="node">
<title>3</title>
<ellipse fill="none" stroke="#000000" cx="267" cy="-235.6935" rx="18" ry="18"/>
<text text-anchor="middle" x="267" y="-231.4935" font-family="Times,serif" font-size="14.00" fill="#000000">3</text>
</g>
<!-- 1&#45;&gt;3 -->
<g id="edge6" class="edge">
<title>1-&gt;3</title>
<path fill="none" stroke="#000000" d="M204.7906,-291.8978C213.1158,-288.096 223.0602,-282.8756 231,-276.6935 237.7267,-271.4559 244.1731,-264.8335 249.705,-258.4474"/>
<polygon fill="#000000" stroke="#000000" points="252.5099,-260.5474 256.1751,-250.6067 247.1108,-256.092 252.5099,-260.5474"/>
<text text-anchor="middle" x="227.5" y="-284.8935" font-family="Times,serif" font-size="14.00" fill="#000000">c</text>
</g>
<!-- 2&#45;&gt;0 -->
<g id="edge5" class="edge">
<title>2-&gt;0</title>
<path fill="none" stroke="#000000" d="M248.8959,-341.6923C227.4236,-344.1557 191.8026,-344.6397 170,-325.6935 136.378,-296.4762 120.6139,-245.3098 113.7494,-213.5878"/>
<polygon fill="#000000" stroke="#000000" points="117.151,-212.7497 111.7496,-203.6352 110.2882,-214.1287 117.151,-212.7497"/>
<text text-anchor="middle" x="188" y="-344.8935" font-family="Times,serif" font-size="14.00" fill="#000000">c</text>
</g>
<!-- 3&#45;&gt;0 -->
<g id="edge7" class="edge">
<title>3-&gt;0</title>
<path fill="none" stroke="#000000" d="M255.8799,-220.9452C249.432,-213.4346 240.6831,-204.8278 231,-199.6935 201.8285,-184.2256 163.3012,-182.3492 137.4151,-183.2804"/>
<polygon fill="#000000" stroke="#000000" points="136.9614,-179.7994 127.1591,-183.82 137.3292,-186.7897 136.9614,-179.7994"/>
<text text-anchor="middle" x="188" y="-193.8935" font-family="Times,serif" font-size="14.00" fill="#000000">b</text>
</g>
<!-- 4&#45;&gt;2 -->
<g id="edge13" class="edge">
<title>4-&gt;2</title>
<path fill="none" stroke="#000000" d="M205.6516,-242.4084C214.1963,-244.9734 224.0772,-249.1728 231,-255.8935 246.3246,-270.7707 255.5347,-293.268 260.7978,-311.0589"/>
<polygon fill="#000000" stroke="#000000" points="257.4688,-312.1566 263.4569,-320.897 264.2263,-310.3301 257.4688,-312.1566"/>
<text text-anchor="middle" x="227.5" y="-259.8935" font-family="Times,serif" font-size="14.00" fill="#000000">a</text>
</g>
<!-- 5 -->
<g id="node7" class="node">
<title>5</title>
<ellipse fill="none" stroke="#000000" cx="267" cy="-132.6935" rx="18" ry="18"/>
<text text-anchor="middle" x="267" y="-128.4935" font-family="Times,serif" font-size="14.00" fill="#000000">5</text>
</g>
<!-- 4&#45;&gt;5 -->
<g id="edge9" class="edge">
<title>4-&gt;5</title>
<path fill="none" stroke="#000000" d="M198.9846,-223.9546C212.1911,-206.2345 234.5038,-176.2959 249.9539,-155.5654"/>
<polygon fill="#000000" stroke="#000000" points="252.9392,-157.4168 256.1087,-147.3071 247.3265,-153.2337 252.9392,-157.4168"/>
<text text-anchor="middle" x="227.5" y="-192.8935" font-family="Times,serif" font-size="14.00" fill="#000000">c</text>
</g>
<!-- 5&#45;&gt;0 -->
<g id="edge10" class="edge">
<title>5-&gt;0</title>
<path fill="none" stroke="#000000" d="M249.381,-137.8563C229.8708,-143.6481 197.534,-153.4697 170,-162.8935 158.6515,-166.7776 146.2324,-171.3582 135.5793,-175.391"/>
<polygon fill="#000000" stroke="#000000" points="134.0928,-172.2121 125.9992,-179.049 136.5898,-178.7516 134.0928,-172.2121"/>
<text text-anchor="middle" x="188" y="-166.8935" font-family="Times,serif" font-size="14.00" fill="#000000">a</text>
</g>
<!-- 6&#45;&gt;5 -->
<g id="edge12" class="edge">
<title>6-&gt;5</title>
<path fill="none" stroke="#000000" d="M204.406,-86.5044C212.6332,-90.678 222.606,-96.1355 231,-101.8935 236.1274,-105.4107 241.3657,-109.5363 246.2023,-113.6043"/>
<polygon fill="#000000" stroke="#000000" points="244.031,-116.3545 253.8723,-120.2787 248.6261,-111.0739 244.031,-116.3545"/>
<text text-anchor="middle" x="227.5" y="-106.8935" font-family="Times,serif" font-size="14.00" fill="#000000">b</text>
</g>
<!-- 8 -->
<g id="node10" class="node">
<title>8</title>
<ellipse fill="none" stroke="#000000" cx="267" cy="-24.6935" rx="18" ry="18"/>
<text text-anchor="middle" x="267" y="-20.4935" font-family="Times,serif" font-size="14.00" fill="#000000">8</text>
</g>
<!-- 7&#45;&gt;8 -->
<g id="edge14" class="edge">
<title>7-&gt;8</title>
<path fill="none" stroke="#000000" d="M206.3228,-24.6935C215.8947,-24.6935 227.8223,-24.6935 238.5629,-24.6935"/>
<polygon fill="#000000" stroke="#000000" points="238.7766,-28.1936 248.7766,-24.6935 238.7766,-21.1936 238.7766,-28.1936"/>
<text text-anchor="middle" x="227.5" y="-28.8935" font-family="Times,serif" font-size="14.00" fill="#000000">a</text>
</g>
<!-- 9 -->
<g id="node11" class="node">
<title>9</title>
<ellipse fill="none" stroke="#000000" cx="365.4292" cy="-24.6935" rx="18" ry="18"/>
<text text-anchor="middle" x="365.4292" y="-20.4935" font-family="Times,serif" font-size="14.00" fill="#000000">9</text>
</g>
<!-- 8&#45;&gt;9 -->
<g id="edge15" class="edge">
<title>8-&gt;9</title>
<path fill="none" stroke="#000000" d="M285.0534,-24.6935C299.531,-24.6935 320.1202,-24.6935 336.8353,-24.6935"/>
<polygon fill="#000000" stroke="#000000" points="337.1569,-28.1935 347.1569,-24.6935 337.1569,-21.1935 337.1569,-28.1935"/>
<text text-anchor="middle" x="316.2146" y="-28.8935" font-family="Times,serif" font-size="14.00" fill="#000000">a,b,c</text>
</g>
<!-- 10 -->
<g id="node12" class="node">
<title>10</title>
<ellipse fill="none" stroke="#000000" cx="456.8373" cy="-24.6935" rx="20.8887" ry="20.8887"/>
<text text-anchor="middle" x="456.8373" y="-20.4935" font-family="Times,serif" font-size="14.00" fill="#000000">10</text>
</g>
<!-- 9&#45;&gt;10 -->
<g id="edge16" class="edge">
<title>9-&gt;10</title>
<path fill="none" stroke="#000000" d="M383.4885,-24.6935C395.5122,-24.6935 411.6247,-24.6935 425.6855,-24.6935"/>
<polygon fill="#000000" stroke="#000000" points="425.9363,-28.1936 435.9362,-24.6935 425.9362,-21.1936 425.9363,-28.1936"/>
<text text-anchor="middle" x="409.7865" y="-28.8935" font-family="Times,serif" font-size="14.00" fill="#000000">a,b</text>
</g>
<!-- 11 -->
<g id="node13" class="node">
<title>11</title>
<ellipse fill="none" stroke="#000000" cx="550.9388" cy="-24.6935" rx="20.8887" ry="20.8887"/>
<text text-anchor="middle" x="550.9388" y="-20.4935" font-family="Times,serif" font-size="14.00" fill="#000000">11</text>
</g>
<!-- 10&#45;&gt;11 -->
<g id="edge17" class="edge">
<title>10-&gt;11</title>
<path fill="none" stroke="#000000" d="M477.7214,-24.6935C490.1481,-24.6935 506.1453,-24.6935 520.0154,-24.6935"/>
<polygon fill="#000000" stroke="#000000" points="520.113,-28.1936 530.113,-24.6935 520.1129,-21.1936 520.113,-28.1936"/>
<text text-anchor="middle" x="503.888" y="-28.8935" font-family="Times,serif" font-size="14.00" fill="#000000">b,c</text>
</g>
<!-- 12 -->
<g id="node14" class="node">
<title>12</title>
<ellipse fill="none" stroke="#000000" cx="648.2549" cy="-24.6935" rx="20.8568" ry="20.8568"/>
<ellipse fill="none" stroke="#000000" cx="648.2549" cy="-24.6935" rx="24.8884" ry="24.8884"/>
<text text-anchor="middle" x="648.2549" y="-20.4935" font-family="Times,serif" font-size="14.00" fill="#000000">12</text>
</g>
<!-- 11&#45;&gt;12 -->
<g id="edge18" class="edge">
<title>11-&gt;12</title>
<path fill="none" stroke="#000000" d="M572.0549,-24.6935C584.0824,-24.6935 599.4576,-24.6935 613.2429,-24.6935"/>
<polygon fill="#000000" stroke="#000000" points="613.3929,-28.1936 623.3929,-24.6935 613.3929,-21.1936 613.3929,-28.1936"/>
<text text-anchor="middle" x="597.5968" y="-28.8935" font-family="Times,serif" font-size="14.00" fill="#000000">a,c</text>
</g>
</g>
</svg>